<svg width="64" height="64" viewBox="0 0 64 64" fill="none" xmlns="http://www.w3.org/2000/svg">
<mask id="mask0" mask-type="alpha" maskUnits="userSpaceOnUse" x="19" y="20" width="27" height="22">
<path fill-rule="evenodd" clip-rule="evenodd" d="M44.2176 20.6222L45.1443 22.2031C45.1443 22.2031 40.8786 26.2214 41.73 29.8261C44.0195 30.6514 45.6549 32.7781 45.6549 35.2786C45.6549 38.4939 42.9552 41.1022 39.6263 41.1022C36.6924 41.1022 34.25 39.0756 33.7092 36.3944C33.5625 35.5933 33.3956 34.4581 33.8761 33.1724C35.5667 28.6384 38.4292 24.9755 42.0828 22.0273C42.6255 21.5884 44.2176 20.6222 44.2176 20.6222ZM30.1445 20.6222L31.0712 22.2031C31.0712 22.2031 26.8056 26.2214 27.6569 29.8261C29.9465 30.6515 31.5818 32.7781 31.5818 35.2787C31.5818 38.4939 28.8821 41.1022 25.5532 41.1022C22.6193 41.1022 20.1769 39.0756 19.6361 36.3944C19.4894 35.5933 19.3226 34.4581 19.803 33.1724C21.4936 28.6384 24.3561 24.9755 28.0097 22.0273C28.5524 21.5884 30.1445 20.6222 30.1445 20.6222Z" fill="black"/>
</mask>
<g mask="url(#mask0)">
<rect width="64" height="64" fill="#CCE1FF"/>
</g>
</svg>
