<svg width="213" height="537" viewBox="0 0 213 537" fill="none" xmlns="http://www.w3.org/2000/svg">
<path d="M-329.645 135.571L81.5961 0.96851" stroke="#456DB0" stroke-width="0.25" stroke-miterlimit="10"/>
<path d="M-325.752 147.464L85.4887 12.8616" stroke="#456DB0" stroke-width="0.25" stroke-miterlimit="10"/>
<path d="M-321.859 159.357L89.3813 24.7542" stroke="#456DB0" stroke-width="0.25" stroke-miterlimit="10"/>
<path d="M-314.215 182.713L97.0258 48.1106" stroke="#456DB0" stroke-width="0.25" stroke-miterlimit="10"/>
<path d="M-310.369 194.463L100.872 59.8601" stroke="#456DB0" stroke-width="0.25" stroke-miterlimit="10"/>
<path d="M-306.523 206.214L104.717 71.6111" stroke="#456DB0" stroke-width="0.25" stroke-miterlimit="10"/>
<path d="M-302.678 217.961L108.563 83.3586" stroke="#456DB0" stroke-width="0.25" stroke-miterlimit="10"/>
<path d="M-298.83 229.712L112.411 95.1091" stroke="#456DB0" stroke-width="0.25" stroke-miterlimit="10"/>
<path d="M-294.986 241.461L116.254 106.859" stroke="#456DB0" stroke-width="0.25" stroke-miterlimit="10"/>
<path d="M-291.141 253.212L120.1 118.61" stroke="#456DB0" stroke-width="0.25" stroke-miterlimit="10"/>
<path d="M-287.295 264.962L123.946 130.359" stroke="#456DB0" stroke-width="0.25" stroke-miterlimit="10"/>
<path d="M-283.447 276.711L127.793 142.109" stroke="#456DB0" stroke-width="0.25" stroke-miterlimit="10"/>
<path d="M-279.582 288.522L131.659 153.919" stroke="#456DB0" stroke-width="0.25" stroke-miterlimit="10"/>
<path d="M-318.059 170.964L93.1821 36.3616" stroke="#456DB0" stroke-width="0.25" stroke-miterlimit="10"/>
<path d="M-275.756 300.213L135.485 165.61" stroke="#456DB0" stroke-width="0.25" stroke-miterlimit="10"/>
<path d="M-271.865 312.103L139.375 177.5" stroke="#456DB0" stroke-width="0.25" stroke-miterlimit="10"/>
<path d="M-267.971 323.998L143.27 189.395" stroke="#456DB0" stroke-width="0.25" stroke-miterlimit="10"/>
<path d="M-260.326 347.352L150.914 212.749" stroke="#456DB0" stroke-width="0.25" stroke-miterlimit="10"/>
<path d="M-256.48 359.103L154.76 224.5" stroke="#456DB0" stroke-width="0.25" stroke-miterlimit="10"/>
<path d="M-252.635 370.852L158.606 236.249" stroke="#456DB0" stroke-width="0.25" stroke-miterlimit="10"/>
<path d="M-248.789 382.603L162.452 248" stroke="#456DB0" stroke-width="0.25" stroke-miterlimit="10"/>
<path d="M-244.943 394.352L166.297 259.749" stroke="#456DB0" stroke-width="0.25" stroke-miterlimit="10"/>
<path d="M-241.098 406.102L170.143 271.499" stroke="#456DB0" stroke-width="0.25" stroke-miterlimit="10"/>
<path d="M-237.252 417.851L173.989 283.248" stroke="#456DB0" stroke-width="0.25" stroke-miterlimit="10"/>
<path d="M-233.406 429.602L177.834 294.999" stroke="#456DB0" stroke-width="0.25" stroke-miterlimit="10"/>
<path d="M-229.559 441.351L181.682 306.748" stroke="#456DB0" stroke-width="0.25" stroke-miterlimit="10"/>
<path d="M-225.693 453.164L185.547 318.561" stroke="#456DB0" stroke-width="0.25" stroke-miterlimit="10"/>
<path d="M-221.936 464.645L189.305 330.042" stroke="#456DB0" stroke-width="0.25" stroke-miterlimit="10"/>
<path d="M-218.09 476.395L193.151 341.792" stroke="#456DB0" stroke-width="0.25" stroke-miterlimit="10"/>
<path d="M-214.244 488.144L196.997 353.541" stroke="#456DB0" stroke-width="0.25" stroke-miterlimit="10"/>
<path d="M-210.398 499.894L200.842 365.291" stroke="#456DB0" stroke-width="0.25" stroke-miterlimit="10"/>
<path d="M-206.553 511.645L204.688 377.042" stroke="#456DB0" stroke-width="0.25" stroke-miterlimit="10"/>
<path d="M-202.688 523.455L208.553 388.852" stroke="#456DB0" stroke-width="0.25" stroke-miterlimit="10"/>
<path d="M-198.586 535.983L212.655 401.38" stroke="#456DB0" stroke-width="0.25" stroke-miterlimit="10"/>
<path d="M-264.172 335.604L147.069 201.001" stroke="#456DB0" stroke-width="0.25" stroke-miterlimit="10"/>
<path d="M81.5977 0.968262L212.656 401.38" stroke="#456DB0" stroke-width="0.25" stroke-miterlimit="10"/>
<path d="M69.7031 4.86133L200.762 405.273" stroke="#456DB0" stroke-width="0.25" stroke-miterlimit="10"/>
<path d="M57.8105 8.75342L188.869 409.165" stroke="#456DB0" stroke-width="0.25" stroke-miterlimit="10"/>
<path d="M34.4531 16.3989L165.512 416.811" stroke="#456DB0" stroke-width="0.25" stroke-miterlimit="10"/>
<path d="M22.7051 20.2441L153.763 420.656" stroke="#456DB0" stroke-width="0.25" stroke-miterlimit="10"/>
<path d="M10.9531 24.0903L142.012 424.502" stroke="#456DB0" stroke-width="0.25" stroke-miterlimit="10"/>
<path d="M-0.794922 27.9355L130.263 428.347" stroke="#456DB0" stroke-width="0.25" stroke-miterlimit="10"/>
<path d="M-12.5449 31.7817L118.513 432.193" stroke="#456DB0" stroke-width="0.25" stroke-miterlimit="10"/>
<path d="M-24.2949 35.6274L106.763 436.039" stroke="#456DB0" stroke-width="0.25" stroke-miterlimit="10"/>
<path d="M-36.0449 39.4731L95.0135 439.885" stroke="#456DB0" stroke-width="0.25" stroke-miterlimit="10"/>
<path d="M-47.793 43.3188L83.2654 443.731" stroke="#456DB0" stroke-width="0.25" stroke-miterlimit="10"/>
<path d="M-59.543 47.1646L71.5154 447.576" stroke="#456DB0" stroke-width="0.25" stroke-miterlimit="10"/>
<path d="M-71.3555 51.0308L59.7029 451.442" stroke="#456DB0" stroke-width="0.25" stroke-miterlimit="10"/>
<path d="M46.2031 12.5527L177.262 412.964" stroke="#456DB0" stroke-width="0.25" stroke-miterlimit="10"/>
<path d="M-83.043 54.8564L48.0154 455.268" stroke="#456DB0" stroke-width="0.25" stroke-miterlimit="10"/>
<path d="M-94.9355 58.749L36.1228 459.161" stroke="#456DB0" stroke-width="0.25" stroke-miterlimit="10"/>
<path d="M-106.83 62.6421L24.2283 463.054" stroke="#456DB0" stroke-width="0.25" stroke-miterlimit="10"/>
<path d="M-130.186 70.2866L0.872832 470.698" stroke="#456DB0" stroke-width="0.25" stroke-miterlimit="10"/>
<path d="M-118.436 66.4404L12.6228 466.852" stroke="#456DB0" stroke-width="0.25" stroke-miterlimit="10"/>
</svg>
