<svg width="1422" height="1884" viewBox="0 0 1422 1884" fill="none" xmlns="http://www.w3.org/2000/svg">
<path d="M1395.69 4.60954L1411.51 8.69124L1407.43 24.5127L1391.61 20.431L1395.69 4.60954Z" stroke="#6A87D8"/>
<rect width="17.3395" height="17.3395" transform="translate(796 446.962) rotate(-35.0661)" fill="#F9DBD8"/>
<rect width="17.3395" height="17.3395" transform="translate(59 1170.96) rotate(-35.0661)" fill="#F9DBD8"/>
<path d="M950.662 1621.27L960.808 1616.66L965.412 1626.81L955.265 1631.41L950.662 1621.27Z" stroke="#6A87D8"/>
<path d="M-5.32572 234.588L27.1523 211.239L15.4779 195L-17.0002 218.349L-5.32572 234.588Z" fill="#F9DBD8"/>
<path d="M268.582 394L231 407.696L237.848 426.487L275.43 412.791L268.582 394Z" fill="#BECAEA"/>
<rect width="17.3395" height="17.3395" transform="translate(202.801 1289.89) rotate(113.403)" fill="#A4EDDD"/>
<path d="M195.914 1305.8L202.801 1289.89L186.888 1283L180.001 1298.91L195.914 1305.8Z" fill="#BECAEA"/>
<rect width="17.3395" height="17.3395" transform="translate(1396 1716.48) rotate(-14.9611)" fill="#A4EDDD"/>
<path d="M1412.75 1712L1396 1716.48L1400.48 1733.23L1417.23 1728.75L1412.75 1712Z" fill="#BECAEA"/>
<path d="M1377.64 831.39L1357.7 796L1340 805.971L1359.94 841.362L1377.64 831.39Z" fill="#BECAEA"/>
<path d="M592.001 665.065L614.131 678.13L620.664 667.065L598.533 654L592.001 665.065Z" fill="#BECAEA"/>
<path d="M774.121 1519.63L828.181 1536.92L819.688 1563.47L765.629 1546.18L774.121 1519.63Z" stroke="#6A87D8"/>
<path d="M167.246 3.93457L195.811 33.4379" stroke="black" stroke-width="0.25" stroke-miterlimit="10"/>
<path d="M171.811 12.2881L185.912 26.8565" stroke="black" stroke-width="0.25" stroke-miterlimit="10"/>
<path d="M157.707 12.3877L178.618 33.9886" stroke="black" stroke-width="0.25" stroke-miterlimit="10"/>
<path d="M162.51 21.3823L184.73 44.3343" stroke="black" stroke-width="0.25" stroke-miterlimit="10"/>
<path d="M185.942 26.8848C187.89 28.9 187.836 32.1298 185.824 34.0976C183.81 36.0673 180.596 36.0306 178.647 34.0167" stroke="black" stroke-width="0.25" stroke-miterlimit="10"/>
<path d="M195.81 33.4376C198.779 36.5044 198.7 41.4218 195.633 44.4212C192.566 47.4191 187.675 47.3654 184.706 44.3007" stroke="black" stroke-width="0.25" stroke-miterlimit="10"/>
<path d="M158.141 12.8401C155.708 10.3224 155.773 6.293 158.288 3.8368C160.801 1.3765 164.813 1.41925 167.245 3.9352" stroke="black" stroke-width="0.25" stroke-miterlimit="10"/>
<path d="M710.006 990.687L685.114 1031.47" stroke="black" stroke-width="0.25" stroke-miterlimit="10"/>
<path d="M701.93 998.268L689.637 1018.4" stroke="black" stroke-width="0.25" stroke-miterlimit="10"/>
<path d="M697.699 982.41L679.474 1012.27" stroke="black" stroke-width="0.25" stroke-miterlimit="10"/>
<path d="M688.971 990.447L669.605 1022.18" stroke="black" stroke-width="0.25" stroke-miterlimit="10"/>
<path d="M689.614 1018.45C687.913 1021.23 684.259 1022.11 681.455 1020.42C678.649 1018.72 677.752 1015.09 679.451 1012.31" stroke="black" stroke-width="0.25" stroke-miterlimit="10"/>
<path d="M685.115 1031.47C682.527 1035.71 676.965 1037.06 672.691 1034.48C668.419 1031.9 667.052 1026.38 669.637 1022.14" stroke="black" stroke-width="0.25" stroke-miterlimit="10"/>
<path d="M697.317 983.031C699.443 979.556 704 978.453 707.501 980.568C711.006 982.681 712.129 987.212 710.005 990.687" stroke="black" stroke-width="0.25" stroke-miterlimit="10"/>
<path d="M1027.96 390.43L1024.31 416.203" stroke="black" stroke-width="0.25" stroke-miterlimit="10"/>
<path d="M1025.57 395.958L1023.76 408.682" stroke="black" stroke-width="0.25" stroke-miterlimit="10"/>
<path d="M1020.07 388.909L1017.39 407.777" stroke="black" stroke-width="0.25" stroke-miterlimit="10"/>
<path d="M1017.44 394.804L1014.6 414.853" stroke="black" stroke-width="0.25" stroke-miterlimit="10"/>
<path d="M1023.75 408.708C1023.5 410.467 1021.87 411.69 1020.12 411.44C1018.36 411.191 1017.14 409.562 1017.39 407.803" stroke="black" stroke-width="0.25" stroke-miterlimit="10"/>
<path d="M1024.3 416.203C1023.92 418.882 1021.44 420.745 1018.77 420.365C1016.09 419.985 1014.23 417.506 1014.6 414.828" stroke="black" stroke-width="0.25" stroke-miterlimit="10"/>
<path d="M1020.01 389.302C1020.32 387.105 1022.36 385.578 1024.55 385.891C1026.75 386.202 1028.27 388.234 1027.96 390.43" stroke="black" stroke-width="0.25" stroke-miterlimit="10"/>
<path d="M1277.96 25.4297L1274.31 51.2026" stroke="black" stroke-width="0.25" stroke-miterlimit="10"/>
<path d="M1275.57 30.957L1273.76 43.6818" stroke="black" stroke-width="0.25" stroke-miterlimit="10"/>
<path d="M1270.07 23.9082L1267.39 42.7766" stroke="black" stroke-width="0.25" stroke-miterlimit="10"/>
<path d="M1267.44 29.8037L1264.6 49.8529" stroke="black" stroke-width="0.25" stroke-miterlimit="10"/>
<path d="M1273.75 43.7073C1273.5 45.4664 1271.87 46.6892 1270.12 46.4399C1268.36 46.1904 1267.14 44.5612 1267.39 42.8023" stroke="black" stroke-width="0.25" stroke-miterlimit="10"/>
<path d="M1274.3 51.2024C1273.92 53.8814 1271.44 55.745 1268.77 55.3646C1266.09 54.984 1264.23 52.5055 1264.6 49.8276" stroke="black" stroke-width="0.25" stroke-miterlimit="10"/>
<path d="M1270.01 24.3018C1270.32 22.1048 1272.36 20.5776 1274.55 20.8907C1276.75 21.2013 1278.27 23.2336 1277.96 25.4298" stroke="black" stroke-width="0.25" stroke-miterlimit="10"/>
<path d="M1419.04 197.831L1401.21 207.57" stroke="black" stroke-width="0.25" stroke-miterlimit="10"/>
<path d="M1414.47 198.911L1405.67 203.718" stroke="black" stroke-width="0.25" stroke-miterlimit="10"/>
<path d="M1416.31 192.182L1403.26 199.311" stroke="black" stroke-width="0.25" stroke-miterlimit="10"/>
<path d="M1411.4 193.292L1397.53 200.868" stroke="black" stroke-width="0.25" stroke-miterlimit="10"/>
<path d="M1405.65 203.728C1404.43 204.392 1402.91 203.944 1402.24 202.728C1401.58 201.511 1402.03 199.986 1403.24 199.322" stroke="black" stroke-width="0.25" stroke-miterlimit="10"/>
<path d="M1401.22 207.569C1399.36 208.582 1397.04 207.9 1396.03 206.047C1395.02 204.195 1395.7 201.873 1397.55 200.861" stroke="black" stroke-width="0.25" stroke-miterlimit="10"/>
<path d="M1416.04 192.33C1417.56 191.501 1419.46 192.059 1420.29 193.578C1421.12 195.097 1420.56 197.001 1419.04 197.83" stroke="black" stroke-width="0.25" stroke-miterlimit="10"/>
<path d="M1204.04 1634.83L1186.21 1644.57" stroke="black" stroke-width="0.25" stroke-miterlimit="10"/>
<path d="M1199.47 1635.91L1190.67 1640.72" stroke="black" stroke-width="0.25" stroke-miterlimit="10"/>
<path d="M1201.31 1629.18L1188.26 1636.31" stroke="black" stroke-width="0.25" stroke-miterlimit="10"/>
<path d="M1196.4 1630.29L1182.53 1637.87" stroke="black" stroke-width="0.25" stroke-miterlimit="10"/>
<path d="M1190.65 1640.73C1189.43 1641.39 1187.91 1640.94 1187.24 1639.73C1186.58 1638.51 1187.03 1636.99 1188.24 1636.32" stroke="black" stroke-width="0.25" stroke-miterlimit="10"/>
<path d="M1186.22 1644.57C1184.36 1645.58 1182.04 1644.9 1181.03 1643.05C1180.02 1641.19 1180.7 1638.87 1182.55 1637.86" stroke="black" stroke-width="0.25" stroke-miterlimit="10"/>
<path d="M1201.04 1629.33C1202.56 1628.5 1204.46 1629.06 1205.29 1630.58C1206.12 1632.1 1205.56 1634 1204.04 1634.83" stroke="black" stroke-width="0.25" stroke-miterlimit="10"/>
<path d="M1382.6 1882.08L1355.15 1864.36" stroke="black" stroke-width="0.25" stroke-miterlimit="10"/>
<path d="M1377.56 1876.45L1364.01 1867.69" stroke="black" stroke-width="0.25" stroke-miterlimit="10"/>
<path d="M1388.48 1873.89L1368.39 1860.91" stroke="black" stroke-width="0.25" stroke-miterlimit="10"/>
<path d="M1383.14 1867.8L1361.79 1854.01" stroke="black" stroke-width="0.25" stroke-miterlimit="10"/>
<path d="M1363.98 1867.68C1362.11 1866.47 1361.57 1863.97 1362.78 1862.1C1363.99 1860.22 1366.49 1859.69 1368.36 1860.9" stroke="black" stroke-width="0.25" stroke-miterlimit="10"/>
<path d="M1355.15 1864.36C1352.3 1862.52 1351.48 1858.71 1353.32 1855.86C1355.16 1853.01 1358.97 1852.19 1361.82 1854.03" stroke="black" stroke-width="0.25" stroke-miterlimit="10"/>
<path d="M1388.06 1873.62C1390.4 1875.13 1391.07 1878.25 1389.56 1880.58C1388.05 1882.92 1384.93 1883.6 1382.6 1882.08" stroke="black" stroke-width="0.25" stroke-miterlimit="10"/>
<path d="M322.043 1015.83L304.214 1025.57" stroke="black" stroke-width="0.25" stroke-miterlimit="10"/>
<path d="M317.469 1016.91L308.665 1021.72" stroke="black" stroke-width="0.25" stroke-miterlimit="10"/>
<path d="M319.312 1010.18L306.259 1017.31" stroke="black" stroke-width="0.25" stroke-miterlimit="10"/>
<path d="M314.398 1011.29L300.529 1018.87" stroke="black" stroke-width="0.25" stroke-miterlimit="10"/>
<path d="M308.648 1021.73C307.431 1022.39 305.906 1021.94 305.242 1020.73C304.577 1019.51 305.025 1017.99 306.242 1017.32" stroke="black" stroke-width="0.25" stroke-miterlimit="10"/>
<path d="M304.216 1025.57C302.362 1026.58 300.04 1025.9 299.027 1024.05C298.016 1022.19 298.697 1019.87 300.549 1018.86" stroke="black" stroke-width="0.25" stroke-miterlimit="10"/>
<path d="M319.039 1010.33C320.559 1009.5 322.463 1010.06 323.291 1011.58C324.122 1013.1 323.564 1015 322.044 1015.83" stroke="black" stroke-width="0.25" stroke-miterlimit="10"/>
<path d="M547.502 1495.33L560.375 1479.62" stroke="black" stroke-width="0.25" stroke-miterlimit="10"/>
<path d="M551.338 1492.62L557.695 1484.86" stroke="black" stroke-width="0.25" stroke-miterlimit="10"/>
<path d="M552.152 1499.54L561.577 1488.04" stroke="black" stroke-width="0.25" stroke-miterlimit="10"/>
<path d="M556.289 1496.67L566.304 1484.45" stroke="black" stroke-width="0.25" stroke-miterlimit="10"/>
<path d="M557.707 1484.84C558.586 1483.77 560.168 1483.61 561.24 1484.49C562.312 1485.37 562.469 1486.95 561.59 1488.02" stroke="black" stroke-width="0.25" stroke-miterlimit="10"/>
<path d="M560.374 1479.62C561.712 1477.98 564.12 1477.74 565.754 1479.08C567.386 1480.42 567.626 1482.83 566.289 1484.46" stroke="black" stroke-width="0.25" stroke-miterlimit="10"/>
<path d="M552.351 1499.3C551.252 1500.64 549.278 1500.84 547.94 1499.74C546.601 1498.65 546.404 1496.67 547.501 1495.33" stroke="black" stroke-width="0.25" stroke-miterlimit="10"/>
</svg>
