<svg width="1440" height="558" viewBox="0 0 1440 558" fill="none" xmlns="http://www.w3.org/2000/svg">
<path d="M1679.83 140.029L1407.13 1L1210.5 386.681L1483.21 525.709L1679.83 140.029Z" fill="white" stroke="#456DB0" stroke-width="0.25" stroke-miterlimit="10"/>
<path d="M1401.87 72.0361L1624.84 185.71" stroke="#456DB0" stroke-width="0.25" stroke-miterlimit="10"/>
<path d="M1392.48 90.4531L1615.45 204.127" stroke="#456DB0" stroke-width="0.25" stroke-miterlimit="10"/>
<path d="M1383.09 108.874L1606.06 222.548" stroke="#456DB0" stroke-width="0.25" stroke-miterlimit="10"/>
<path d="M1364.65 145.044L1587.62 258.718" stroke="#456DB0" stroke-width="0.25" stroke-miterlimit="10"/>
<path d="M1355.38 163.238L1578.35 276.912" stroke="#456DB0" stroke-width="0.25" stroke-miterlimit="10"/>
<path d="M1346.1 181.437L1569.07 295.11" stroke="#456DB0" stroke-width="0.25" stroke-miterlimit="10"/>
<path d="M1336.82 199.632L1559.79 313.305" stroke="#456DB0" stroke-width="0.25" stroke-miterlimit="10"/>
<path d="M1327.55 217.828L1550.52 331.501" stroke="#456DB0" stroke-width="0.25" stroke-miterlimit="10"/>
<path d="M1318.27 236.024L1541.24 349.698" stroke="#456DB0" stroke-width="0.25" stroke-miterlimit="10"/>
<path d="M1308.99 254.22L1531.96 367.893" stroke="#456DB0" stroke-width="0.25" stroke-miterlimit="10"/>
<path d="M1299.71 272.417L1522.68 386.091" stroke="#456DB0" stroke-width="0.25" stroke-miterlimit="10"/>
<path d="M1290.44 290.612L1513.41 404.286" stroke="#456DB0" stroke-width="0.25" stroke-miterlimit="10"/>
<path d="M1281.11 308.907L1504.08 422.58" stroke="#456DB0" stroke-width="0.25" stroke-miterlimit="10"/>
<path d="M1373.93 126.846L1596.9 240.519" stroke="#456DB0" stroke-width="0.25" stroke-miterlimit="10"/>
<path d="M1271.88 327.006L1383.37 383.842" stroke="#456DB0" stroke-width="0.25" stroke-miterlimit="10"/>
<path d="M-329.645 147.571L81.5961 12.9685" stroke="#456DB0" stroke-width="0.25" stroke-miterlimit="10"/>
<path d="M-325.752 159.464L85.4887 24.8616" stroke="#456DB0" stroke-width="0.25" stroke-miterlimit="10"/>
<path d="M-321.859 171.357L89.3813 36.7542" stroke="#456DB0" stroke-width="0.25" stroke-miterlimit="10"/>
<path d="M-314.215 194.713L97.0258 60.1106" stroke="#456DB0" stroke-width="0.25" stroke-miterlimit="10"/>
<path d="M-310.369 206.463L100.872 71.8601" stroke="#456DB0" stroke-width="0.25" stroke-miterlimit="10"/>
<path d="M-306.523 218.214L104.717 83.6111" stroke="#456DB0" stroke-width="0.25" stroke-miterlimit="10"/>
<path d="M-302.678 229.961L108.563 95.3586" stroke="#456DB0" stroke-width="0.25" stroke-miterlimit="10"/>
<path d="M-298.83 241.712L112.411 107.109" stroke="#456DB0" stroke-width="0.25" stroke-miterlimit="10"/>
<path d="M-294.986 253.461L116.254 118.859" stroke="#456DB0" stroke-width="0.25" stroke-miterlimit="10"/>
<path d="M-291.141 265.212L120.1 130.61" stroke="#456DB0" stroke-width="0.25" stroke-miterlimit="10"/>
<path d="M-287.295 276.962L123.946 142.359" stroke="#456DB0" stroke-width="0.25" stroke-miterlimit="10"/>
<path d="M-283.447 288.711L127.793 154.109" stroke="#456DB0" stroke-width="0.25" stroke-miterlimit="10"/>
<path d="M-279.582 300.522L131.659 165.919" stroke="#456DB0" stroke-width="0.25" stroke-miterlimit="10"/>
<path d="M-318.059 182.964L93.1821 48.3616" stroke="#456DB0" stroke-width="0.25" stroke-miterlimit="10"/>
<path d="M-275.756 312.213L135.485 177.61" stroke="#456DB0" stroke-width="0.25" stroke-miterlimit="10"/>
<path d="M-271.865 324.103L139.375 189.5" stroke="#456DB0" stroke-width="0.25" stroke-miterlimit="10"/>
<path d="M-267.971 335.998L143.27 201.395" stroke="#456DB0" stroke-width="0.25" stroke-miterlimit="10"/>
<path d="M-260.326 359.352L150.914 224.749" stroke="#456DB0" stroke-width="0.25" stroke-miterlimit="10"/>
<path d="M-256.48 371.103L154.76 236.5" stroke="#456DB0" stroke-width="0.25" stroke-miterlimit="10"/>
<path d="M-252.635 382.852L158.606 248.249" stroke="#456DB0" stroke-width="0.25" stroke-miterlimit="10"/>
<path d="M-248.789 394.603L162.452 260" stroke="#456DB0" stroke-width="0.25" stroke-miterlimit="10"/>
<path d="M-244.943 406.352L166.297 271.749" stroke="#456DB0" stroke-width="0.25" stroke-miterlimit="10"/>
<path d="M-241.098 418.102L170.143 283.499" stroke="#456DB0" stroke-width="0.25" stroke-miterlimit="10"/>
<path d="M-237.252 429.851L173.989 295.248" stroke="#456DB0" stroke-width="0.25" stroke-miterlimit="10"/>
<path d="M-233.406 441.602L177.834 306.999" stroke="#456DB0" stroke-width="0.25" stroke-miterlimit="10"/>
<path d="M-229.559 453.351L181.682 318.748" stroke="#456DB0" stroke-width="0.25" stroke-miterlimit="10"/>
<path d="M-225.693 465.164L185.547 330.561" stroke="#456DB0" stroke-width="0.25" stroke-miterlimit="10"/>
<path d="M-221.936 476.645L189.305 342.042" stroke="#456DB0" stroke-width="0.25" stroke-miterlimit="10"/>
<path d="M-218.09 488.395L193.151 353.792" stroke="#456DB0" stroke-width="0.25" stroke-miterlimit="10"/>
<path d="M-214.244 500.144L196.997 365.541" stroke="#456DB0" stroke-width="0.25" stroke-miterlimit="10"/>
<path d="M-210.398 511.894L200.842 377.291" stroke="#456DB0" stroke-width="0.25" stroke-miterlimit="10"/>
<path d="M-206.553 523.645L204.688 389.042" stroke="#456DB0" stroke-width="0.25" stroke-miterlimit="10"/>
<path d="M-202.688 535.455L208.553 400.852" stroke="#456DB0" stroke-width="0.25" stroke-miterlimit="10"/>
<path d="M-198.586 547.983L212.655 413.38" stroke="#456DB0" stroke-width="0.25" stroke-miterlimit="10"/>
<path d="M-264.172 347.604L147.069 213.001" stroke="#456DB0" stroke-width="0.25" stroke-miterlimit="10"/>
<path d="M81.5977 12.9683L212.656 413.38" stroke="#456DB0" stroke-width="0.25" stroke-miterlimit="10"/>
<path d="M69.7031 16.8613L200.762 417.273" stroke="#456DB0" stroke-width="0.25" stroke-miterlimit="10"/>
<path d="M57.8105 20.7534L188.869 421.165" stroke="#456DB0" stroke-width="0.25" stroke-miterlimit="10"/>
<path d="M34.4531 28.3989L165.512 428.811" stroke="#456DB0" stroke-width="0.25" stroke-miterlimit="10"/>
<path d="M22.7051 32.2441L153.763 432.656" stroke="#456DB0" stroke-width="0.25" stroke-miterlimit="10"/>
<path d="M10.9531 36.0903L142.012 436.502" stroke="#456DB0" stroke-width="0.25" stroke-miterlimit="10"/>
<path d="M-0.794922 39.9355L130.263 440.347" stroke="#456DB0" stroke-width="0.25" stroke-miterlimit="10"/>
<path d="M-12.5449 43.7817L118.513 444.193" stroke="#456DB0" stroke-width="0.25" stroke-miterlimit="10"/>
<path d="M-24.2949 47.6274L106.763 448.039" stroke="#456DB0" stroke-width="0.25" stroke-miterlimit="10"/>
<path d="M-36.0449 51.4731L95.0135 451.885" stroke="#456DB0" stroke-width="0.25" stroke-miterlimit="10"/>
<path d="M-47.793 55.3188L83.2654 455.731" stroke="#456DB0" stroke-width="0.25" stroke-miterlimit="10"/>
<path d="M-59.543 59.1646L71.5154 459.576" stroke="#456DB0" stroke-width="0.25" stroke-miterlimit="10"/>
<path d="M-71.3555 63.0308L59.7029 463.442" stroke="#456DB0" stroke-width="0.25" stroke-miterlimit="10"/>
<path d="M46.2031 24.5527L177.262 424.964" stroke="#456DB0" stroke-width="0.25" stroke-miterlimit="10"/>
<path d="M-83.043 66.8564L48.0154 467.268" stroke="#456DB0" stroke-width="0.25" stroke-miterlimit="10"/>
<path d="M-94.9355 70.749L36.1228 471.161" stroke="#456DB0" stroke-width="0.25" stroke-miterlimit="10"/>
<path d="M-106.83 74.6421L24.2283 475.054" stroke="#456DB0" stroke-width="0.25" stroke-miterlimit="10"/>
<path d="M-130.186 82.2866L0.872832 482.698" stroke="#456DB0" stroke-width="0.25" stroke-miterlimit="10"/>
<path d="M-118.436 78.4404L12.6228 478.852" stroke="#456DB0" stroke-width="0.25" stroke-miterlimit="10"/>
<path d="M6.81519 354.413L152.689 406.814L100.287 552.688L-45.5867 500.286L6.81519 354.413Z" stroke="#6A87D8"/>
<path d="M1048.27 294L1022 309.167L1037.17 335.438L1063.44 320.271L1048.27 294Z" fill="#F9DBD8"/>
<path d="M631.749 545.797L622.797 537L614 545.952L622.952 554.749L631.749 545.797Z" fill="#BECAEA"/>
<rect width="17.3395" height="17.3395" transform="translate(1274.69 535) rotate(22.6846)" fill="#E7FFDF"/>
<path d="M1290.69 541.687L1274.69 535L1268 550.998L1284 557.685L1290.69 541.687Z" fill="#BECAEA"/>
<path d="M1152.77 471L1116 486.757L1123.88 505.14L1160.64 489.383L1152.77 471Z" fill="#BECAEA"/>
<path d="M172.332 43.6631L150.604 57.9995" stroke="black" stroke-width="0.25" stroke-miterlimit="10"/>
<path d="M166.604 45.5303L155.875 52.6075" stroke="black" stroke-width="0.25" stroke-miterlimit="10"/>
<path d="M168.24 36.7422L152.333 47.2371" stroke="black" stroke-width="0.25" stroke-miterlimit="10"/>
<path d="M162.088 38.6831L145.185 49.8352" stroke="black" stroke-width="0.25" stroke-miterlimit="10"/>
<path d="M155.854 52.6224C154.37 53.5999 152.375 53.1898 151.397 51.7084C150.419 50.2258 150.829 48.2301 152.312 47.252" stroke="black" stroke-width="0.25" stroke-miterlimit="10"/>
<path d="M150.605 57.9998C148.347 59.49 145.308 58.8676 143.818 56.6094C142.329 54.3517 142.952 51.3143 145.209 49.8243" stroke="black" stroke-width="0.25" stroke-miterlimit="10"/>
<path d="M167.908 36.9598C169.762 35.7394 172.252 36.2492 173.471 38.1004C174.694 39.9512 174.184 42.4424 172.332 43.663" stroke="black" stroke-width="0.25" stroke-miterlimit="10"/>
<path d="M1323.32 52.9116L1307.41 68.3536" stroke="black" stroke-width="0.25" stroke-miterlimit="10"/>
<path d="M1318.82 55.3818L1310.97 63.0052" stroke="black" stroke-width="0.25" stroke-miterlimit="10"/>
<path d="M1318.8 47.7681L1307.15 59.0726" stroke="black" stroke-width="0.25" stroke-miterlimit="10"/>
<path d="M1313.96 50.3677L1301.58 62.3799" stroke="black" stroke-width="0.25" stroke-miterlimit="10"/>
<path d="M1310.95 63.0212C1309.86 64.0745 1308.13 64.0476 1307.08 62.9628C1306.02 61.8771 1306.05 60.142 1307.13 59.0883" stroke="black" stroke-width="0.25" stroke-miterlimit="10"/>
<path d="M1307.41 68.3536C1305.76 69.9587 1303.11 69.9195 1301.51 68.2658C1299.91 66.6124 1299.95 63.9718 1301.6 62.3671" stroke="black" stroke-width="0.25" stroke-miterlimit="10"/>
<path d="M1318.56 48.0029C1319.91 46.6877 1322.08 46.7197 1323.39 48.0756C1324.71 49.4307 1324.68 51.5963 1323.32 52.9115" stroke="black" stroke-width="0.25" stroke-miterlimit="10"/>
</svg>
